<svg xmlns="http://www.w3.org/2000/svg" width="46.375" height="30.31" viewBox="0 0 46.375 30.31"><defs><style>.a{fill:#fcda5f;}.b{fill:#504741;}</style></defs><rect class="a" width="25.517" height="10.283" transform="translate(17.753 16.686)"/><path class="b" d="M35.5,83.34H27.572a3.3,3.3,0,0,1-3.3-3.3V71.832a3.3,3.3,0,0,1,3.3-3.3h24.39a3.3,3.3,0,0,1,3.3,3.3v7.324h1.265V71.832a4.569,4.569,0,0,0-4.564-4.564H27.572a4.569,4.569,0,0,0-4.564,4.564v8.209a4.57,4.57,0,0,0,4.564,4.565h7.7A5.749,5.749,0,0,1,35.5,83.34Z" transform="translate(-23.008 -67.268)"/><path class="b" d="M33.292,90.816a.632.632,0,1,0-1.109.608l1.381,2.525c-3.739-.42-5.951-2.947-5.951-6.979a.633.633,0,1,0-1.265,0c0,4.428,2.374,7.4,6.318,8.145L30.476,96.4a.633.633,0,0,0,.321,1.179.642.642,0,0,0,.32-.087L35.529,94.9Z" transform="translate(-23.008 -67.268)"/><path class="b" d="M61.528,70.5l2.19-1.284a.633.633,0,1,0-.64-1.092l-4.413,2.588L60.9,74.8a.633.633,0,0,0,1.11-.608L60.63,71.666c3.739.42,5.951,2.946,5.951,6.979a.633.633,0,1,0,1.266,0C67.847,74.217,65.472,71.24,61.528,70.5Z" transform="translate(-23.008 -67.268)"/><g transform="translate(4.925 4.508)"><path class="b" d="M34.535,77.289a2.86,2.86,0,0,1-.965,2.056,3.383,3.383,0,0,1-2.294.752,3.052,3.052,0,0,1-2.451-1.048,4.308,4.308,0,0,1-.892-2.879v-.495a4.839,4.839,0,0,1,.412-2.057,3.083,3.083,0,0,1,1.176-1.366,3.672,3.672,0,0,1,4.035.276,3.076,3.076,0,0,1,.99,2.107H32.877a1.686,1.686,0,0,0-.436-1.137,1.613,1.613,0,0,0-1.143-.353,1.417,1.417,0,0,0-1.249.6,3.349,3.349,0,0,0-.425,1.855v.611a3.576,3.576,0,0,0,.4,1.919,1.391,1.391,0,0,0,1.254.607,1.647,1.647,0,0,0,1.153-.354,1.594,1.594,0,0,0,.437-1.092Z" transform="translate(-27.933 -71.776)"/><path class="b" d="M43.194,76.12a4.885,4.885,0,0,1-.423,2.1,3.179,3.179,0,0,1-1.21,1.39,3.569,3.569,0,0,1-3.6,0,3.2,3.2,0,0,1-1.223-1.381,4.745,4.745,0,0,1-.44-2.067v-.4a4.859,4.859,0,0,1,.432-2.105,3.2,3.2,0,0,1,1.217-1.4,3.568,3.568,0,0,1,3.6,0,3.208,3.208,0,0,1,1.217,1.4,4.843,4.843,0,0,1,.432,2.1ZM41.5,75.754a3.41,3.41,0,0,0-.456-1.936,1.61,1.61,0,0,0-2.6-.008,3.368,3.368,0,0,0-.462,1.915v.4a3.453,3.453,0,0,0,.456,1.925,1.485,1.485,0,0,0,1.313.684,1.47,1.47,0,0,0,1.29-.659,3.438,3.438,0,0,0,.456-1.922Z" transform="translate(-27.933 -71.776)"/><path class="b" d="M46.986,77.133v2.853H45.317v-8.1h3.159a3.657,3.657,0,0,1,1.6.333,2.464,2.464,0,0,1,1.066.948,2.654,2.654,0,0,1,.372,1.4,2.329,2.329,0,0,1-.815,1.878,3.4,3.4,0,0,1-2.255.687Zm0-1.352h1.49a1.468,1.468,0,0,0,1.01-.312,1.133,1.133,0,0,0,.347-.889,1.338,1.338,0,0,0-.35-.962,1.307,1.307,0,0,0-.968-.378H46.986Z" transform="translate(-27.933 -71.776)"/></g><g transform="translate(14.123 13.897)"><path class="b" d="M61.273,86.4H60.45v5.406h.806a1.813,1.813,0,0,0,1.5-.641,2.888,2.888,0,0,0,.528-1.829v-.429a2.934,2.934,0,0,0-.512-1.871A1.8,1.8,0,0,0,61.273,86.4Z" transform="translate(-37.131 -81.165)"/><path class="b" d="M66.277,81.165H40.237a3.106,3.106,0,0,0-3.106,3.106v9.86a3.106,3.106,0,0,0,3.106,3.106h26.04a3.106,3.106,0,0,0,3.106-3.106v-9.86A3.106,3.106,0,0,0,66.277,81.165ZM48.589,90.381a2.727,2.727,0,0,1-.832,2.1,3.2,3.2,0,0,1-2.272.774,3.235,3.235,0,0,1-2.252-.752,2.68,2.68,0,0,1-.851-2.063V85.047H44.05v5.344a1.543,1.543,0,0,0,.381,1.16,1.463,1.463,0,0,0,1.054.365q1.407,0,1.43-1.481V85.047h1.674Zm4.257-2.514a4.454,4.454,0,0,0,1.17.5,5.083,5.083,0,0,1,2.075,1.063,2.116,2.116,0,0,1,.651,1.58,1.943,1.943,0,0,1-.8,1.648,3.472,3.472,0,0,1-2.141.6,4.121,4.121,0,0,1-1.7-.343,2.681,2.681,0,0,1-1.17-.937,2.389,2.389,0,0,1-.4-1.379H52.2q0,1.341,1.6,1.341a1.561,1.561,0,0,0,.929-.242.79.79,0,0,0,.334-.676.857.857,0,0,0-.334-.726,4.366,4.366,0,0,0-1.2-.534,8.549,8.549,0,0,1-1.373-.553,2.244,2.244,0,0,1-1.38-2.007,1.958,1.958,0,0,1,.37-1.172,2.415,2.415,0,0,1,1.063-.8,3.989,3.989,0,0,1,1.554-.29,3.646,3.646,0,0,1,1.546.314,2.461,2.461,0,0,1,1.054.888,2.314,2.314,0,0,1,.376,1.3H55.073a1.094,1.094,0,0,0-.35-.865,1.446,1.446,0,0,0-.985-.308,1.534,1.534,0,0,0-.951.259.813.813,0,0,0-.339.681A.78.78,0,0,0,52.846,87.867Zm12.126,1.418a4.242,4.242,0,0,1-.464,2.008A3.335,3.335,0,0,1,63.2,92.655a3.8,3.8,0,0,1-1.907.489H58.782v-8.1h2.491a3.793,3.793,0,0,1,1.911.48A3.37,3.37,0,0,1,64.5,86.9a4.226,4.226,0,0,1,.473,2.017Z" transform="translate(-37.131 -81.165)"/></g></svg>