<svg xmlns="http://www.w3.org/2000/svg" width="31.916" height="34.369" viewBox="0 0 31.916 34.369"><defs><style>.a{fill:#504741;}</style></defs><g transform="translate(-374.401 -290.982)"><path class="a" d="M403.259,299.646l-.03.029c-.183-.214-.367-.427-.57-.63a10.387,10.387,0,0,0-7.388-3.063h0a10.362,10.362,0,0,0-7.379,3.056l-2.716,2.715a10.553,10.553,0,0,0-.746.841c-.058.073-.116.145-.172.219a10.217,10.217,0,0,0-.622.9c-.02.034-.038.069-.058.1a10.19,10.19,0,0,0-.5.957c-.02.045-.042.088-.061.133a10.022,10.022,0,0,0-.419,1.131l0,.009-.174.573.011.011q-.1.4-.163.816a10.309,10.309,0,0,0,.1,3.936,4.248,4.248,0,0,1-1.077,3.958l-3.295,3.3a3.584,3.584,0,0,0,0,5.063,3.536,3.536,0,0,0,.68.52l-.08.08a3.579,3.579,0,0,0,5.063,0l3.295-3.3a4.246,4.246,0,0,1,3.959-1.077,10.318,10.318,0,0,0,3.925.106,9.161,9.161,0,0,0,.9-.189l.018.013.54-.169c.105-.032.208-.072.311-.113l.124-.047c.31-.112.617-.234.919-.378.165-.078.325-.164.487-.251.29-.157.572-.331.851-.518l.1-.067c.1-.067.2-.135.3-.211a10.393,10.393,0,0,0,1.148-.981l2.716-2.716a10.438,10.438,0,0,0,0-14.763Zm-13.273,14.543-1.879,1.879-2.479-2.478,1.88-1.879Zm3.344,3.344a8.277,8.277,0,0,1-2.58-.157,6.6,6.6,0,0,0-.988-.134L391.4,315.6ZM389.3,300.452a8.378,8.378,0,0,1,5.965-2.47h0a8.446,8.446,0,0,1,5.975,14.414l-2.715,2.714a8.567,8.567,0,0,1-.9.77c-.075.057-.15.112-.226.165a8.337,8.337,0,0,1-.981.6c-.028.014-.058.024-.086.038-.234.117-.481.206-.725.3l-10.9-10.9c.1-.249.186-.5.305-.739.016-.032.03-.065.046-.1a8.4,8.4,0,0,1,.589-.962c.055-.077.11-.154.167-.23a8.5,8.5,0,0,1,.765-.894Zm-3.208,9.844-1.632,1.632a6.83,6.83,0,0,0-.135-.974,8.326,8.326,0,0,1-.155-2.58Zm-6.678,9.757,3.3-3.3a6,6,0,0,0,1.3-1.956l2.889,2.889a6.005,6.005,0,0,0-1.956,1.3l-3.3,3.3a1.58,1.58,0,0,1-2.235-2.235Z"/><path class="a" d="M384.824,296.194a5.212,5.212,0,1,0-5.212,5.211A5.218,5.218,0,0,0,384.824,296.194Zm-7.364,2.367a3.2,3.2,0,1,1,4.519-4.519c.009.109.021.217.021.329a4.211,4.211,0,0,1-4.211,4.211C377.677,298.582,377.569,298.57,377.46,298.561Z"/></g></svg>