<svg xmlns="http://www.w3.org/2000/svg" width="39.101" height="35.299" viewBox="0 0 39.101 35.299"><defs><style>.a{fill:#504741;}</style></defs><g transform="translate(-48.362 -208.009)"><path class="a" d="M68.654,211.432l-.1-.909-6.072-.822v3.657l5.261-.867A1.063,1.063,0,0,0,68.654,211.432Z"/><path class="a" d="M58.08,224.689v1.341a1,1,0,0,0,2,0v-1.341a1,1,0,0,0-2,0Z"/><circle class="a" cx="0.99" cy="0.99" r="0.99" transform="translate(48.371 231.191)"/><path class="a" d="M55.933,240.987a.991.991,0,1,0,.991.99A.99.99,0,0,0,55.933,240.987Z"/><circle class="a" cx="0.99" cy="0.99" r="0.99" transform="translate(68.36 230.582)"/><path class="a" d="M60.985,237.437a1,1,0,0,0-.239-1.986l-.036,0v-3.718a1.553,1.553,0,0,0-3.107,0V235.7c-.635.029-1.268.052-1.894.05l.627-12.61H53.32v-5.124h1.722v2.344h3.025v-2.344h2.027v2.344h3.025v-2.344h1.722v5.124H62.425l.644,12.954v0a1,1,0,0,0,1,.951h.05c.08,0,.189-.016.326-.034a6.678,6.678,0,0,1,1.976,0,1,1,0,1,0,.286-1.979,8.614,8.614,0,0,0-1.691-.084l-.488-9.813h2.315v-9.124H60.375v-7.005a1,1,0,1,0-2,0v7.005H51.32v9.124h2.315l-.077,1.543a22.1,22.1,0,0,0-4.448.647,1,1,0,0,0,.5,1.936,19.932,19.932,0,0,1,3.844-.563l-.345,6.941c-.663-.049-1.324-.106-1.984-.191a1,1,0,0,0-.254,1.985,39.17,39.17,0,0,0,4.982.317A42.763,42.763,0,0,0,60.985,237.437Z"/><path class="a" d="M84.23,220.908l-2.7-2h0L77.1,224.9a28.714,28.714,0,0,0-5.635,1.7A14.209,14.209,0,0,1,67.8,227.68a1,1,0,0,0,.1,2c.035,0,.07,0,.105-.005a15.961,15.961,0,0,0,4.186-1.206c.9-.353,1.907-.73,3.063-1.066l-2.416,3.269,2.056,1.519L73.852,233.6,71.8,232.081,66.762,238.9c.609-.029,1.21-.048,1.8-.048.24,0,.47.018.707.023l2.949-3.992,1.25.923,0,0h0l1.466,1.083-1.692,2.291q1.227.162,2.3.246l2.184-2.957-2.273-1.679,1.044-1.414,2.273,1.68L87.463,223.3Zm-7.057,10.473-.284-.209h0l-1.251-.924,6.309-8.539,1.536,1.133Z"/><path class="a" d="M76.86,241.308a37.838,37.838,0,0,1-4.255-.379,36.3,36.3,0,0,0-10.564.236c-.112.017-.194.031-.242.037a1,1,0,0,0,.067,2,4.775,4.775,0,0,0,.485-.06,34.331,34.331,0,0,1,9.978-.23,40.02,40.02,0,0,0,4.483.4h.025a1,1,0,0,0,.023-2Z"/></g></svg>