<svg xmlns="http://www.w3.org/2000/svg" width="30.994" height="31.604" viewBox="0 0 30.994 31.604"><defs><style>.a{fill:#504741;}</style></defs><g transform="translate(-927 -1335)"><g transform="translate(702.913 1205.294)"><path class="a" d="M233.69,131.134a5.942,5.942,0,0,0-3.49,5.4v3.872h2v-3.872a3.915,3.915,0,0,1,1.49-3.06Z"/><path class="a" d="M244.331,131.135v2.343a3.918,3.918,0,0,1,1.49,3.06v3.872h2v-3.872A5.942,5.942,0,0,0,244.331,131.135Z"/><rect class="a" width="8.641" height="3.888" transform="translate(234.69 129.706)"/></g><path class="a" d="M254.649,144.574a2.164,2.164,0,0,0-1.757-.885H249.8a3.221,3.221,0,0,0-6.137,0h-9.307a3.221,3.221,0,0,0-6.137,0h-1.949a2.186,2.186,0,0,0-2.112,2.754l3.556,13.247a2.188,2.188,0,0,0,2.112,1.62h19.243a2.178,2.178,0,0,0,2.1-1.565l3.814-13.234A2.165,2.165,0,0,0,254.649,144.574Zm-26.342,5.492-.25-1.985a1,1,0,0,1,1.985-.25l.25,1.985a1,1,0,0,1-.867,1.117,1.078,1.078,0,0,1-.126.008A1,1,0,0,1,228.307,150.066Zm1.994,7.812a1.081,1.081,0,0,1-.126.008,1,1,0,0,1-.992-.875l-.25-1.984a1,1,0,1,1,1.985-.25l.25,1.984A1,1,0,0,1,230.3,157.878Zm2.144-9.918a1,1,0,0,1,1-1h0a1,1,0,0,1,1,1l.009,2a1,1,0,0,1-.995,1h-.005a1,1,0,0,1-1-1Zm1.045,10h-.005a1,1,0,0,1-1-1l-.009-2a1,1,0,0,1,1-1h0a1,1,0,0,1,1,1l.009,2A1,1,0,0,1,233.49,157.956Zm4.258-.945a1,1,0,0,1-.991.875,1.082,1.082,0,0,1-.126-.008,1,1,0,0,1-.867-1.117l.25-1.984a1,1,0,1,1,1.984.25Zm.875-6.945a1,1,0,0,1-.991.875,1.078,1.078,0,0,1-.126-.008,1,1,0,0,1-.867-1.117l.25-1.985a1,1,0,0,1,1.984.25Zm14.444-4.123-3.814,13.235a.186.186,0,0,1-.179.132h-9.621l3.453-12.867a2.188,2.188,0,0,0,.054-.754h9.932a.182.182,0,0,1,.151.075A.191.191,0,0,1,253.067,145.943Z" transform="translate(702.913 1205.294)"/></g></svg>