<svg xmlns="http://www.w3.org/2000/svg" width="31.465" height="35.151" viewBox="0 0 31.465 35.151"><defs><style>.a{fill:#504741;}</style></defs><g transform="translate(-435.985 -288.803)"><path class="a" d="M438.518,305a.541.541,0,0,0-.936,0l-1.523,2.629a.541.541,0,0,0,.468.812h3.046a.541.541,0,0,0,.468-.812Z"/><path class="a" d="M439.573,310.2h-3.046a.542.542,0,0,0-.468.813l1.523,2.629a.541.541,0,0,0,.936,0l1.523-2.629A.541.541,0,0,0,439.573,310.2Z"/><path class="a" d="M464.875,293.339h-9.181a4.745,4.745,0,0,0-9.481,0h-1.235a2.756,2.756,0,0,0-2.575,2.775v27.84H467.45v-27.84A2.756,2.756,0,0,0,464.875,293.339ZM450.953,290.8a3,3,0,0,1,2.709,2.536h-2.17L452,292.6a.5.5,0,0,0-.826-.563l-.89,1.306h-2.038A3,3,0,0,1,450.953,290.8Zm-6.55,31.128,4.646-4.7v-4.119L444.4,317.8v-2.7l4.646-4.687V306.3l-4.646,4.687V296.114c0-.317.258-.775.575-.775h5.108v26.615H444.4Zm7.683.023V295.339h5.682v2.1l-4.547,4.861v4.119l4.547-4.642v2.667l-4.547,4.511v4.119l4.547-4.511v13.4Z"/></g></svg>