<svg xmlns="http://www.w3.org/2000/svg" width="46.376" height="29.858" viewBox="0 0 46.376 29.858"><defs><style>.a{fill:#fcda5f;}.b{fill:#504741;}</style></defs><g transform="translate(-197.592 -226.716)"><rect class="a" width="25.517" height="10.283" transform="translate(215.346 243.402)"/><path class="b" d="M209.264,231.336v5.334a2.73,2.73,0,0,1-.832,2.1,3.739,3.739,0,0,1-4.524.022,2.679,2.679,0,0,1-.851-2.063v-5.4h1.668v5.344a1.545,1.545,0,0,0,.381,1.161,1.466,1.466,0,0,0,1.054.364q1.407,0,1.429-1.48v-5.389Z"/><path class="b" d="M215.742,237.309a.855.855,0,0,0-.333-.725,4.366,4.366,0,0,0-1.2-.534,8.54,8.54,0,0,1-1.373-.554,2.243,2.243,0,0,1-1.38-2.007,1.96,1.96,0,0,1,.37-1.172,2.411,2.411,0,0,1,1.063-.8,3.989,3.989,0,0,1,1.554-.289,3.646,3.646,0,0,1,1.546.314,2.465,2.465,0,0,1,1.054.887,2.317,2.317,0,0,1,.375,1.3h-1.668a1.091,1.091,0,0,0-.351-.865,1.436,1.436,0,0,0-.984-.308,1.534,1.534,0,0,0-.951.258.815.815,0,0,0-.339.681.782.782,0,0,0,.4.663,4.488,4.488,0,0,0,1.17.5,5.078,5.078,0,0,1,2.075,1.063,2.116,2.116,0,0,1,.65,1.579,1.948,1.948,0,0,1-.795,1.649,3.479,3.479,0,0,1-2.141.6,4.12,4.12,0,0,1-1.7-.342,2.691,2.691,0,0,1-1.171-.937,2.4,2.4,0,0,1-.4-1.379h1.674q0,1.34,1.6,1.341a1.561,1.561,0,0,0,.929-.243A.787.787,0,0,0,215.742,237.309Z"/><path class="b" d="M219.456,239.434v-8.1h2.492a3.8,3.8,0,0,1,1.911.481,3.361,3.361,0,0,1,1.315,1.368,4.226,4.226,0,0,1,.472,2.017v.372a4.243,4.243,0,0,1-.464,2.009,3.333,3.333,0,0,1-1.31,1.362,3.818,3.818,0,0,1-1.907.489Zm1.669-6.746v5.406h.806a1.813,1.813,0,0,0,1.5-.64,2.89,2.89,0,0,0,.529-1.829V235.2a2.934,2.934,0,0,0-.512-1.871,1.8,1.8,0,0,0-1.5-.637Z"/><path class="b" d="M210.082,242.788h-7.926a3.3,3.3,0,0,1-3.3-3.3v-8.209a3.3,3.3,0,0,1,3.3-3.3h24.391a3.3,3.3,0,0,1,3.3,3.3V238.6h1.266v-7.323a4.57,4.57,0,0,0-4.564-4.565H202.156a4.57,4.57,0,0,0-4.564,4.565v8.209a4.569,4.569,0,0,0,4.564,4.564h7.7A5.82,5.82,0,0,1,210.082,242.788Z"/><path class="b" d="M236.631,245.842H235.1v2.541h1.491a1.468,1.468,0,0,0,1.01-.312,1.134,1.134,0,0,0,.347-.89,1.337,1.337,0,0,0-.35-.961A1.308,1.308,0,0,0,236.631,245.842Z"/><path class="b" d="M227.861,245.758a1.486,1.486,0,0,0-1.3.653,3.361,3.361,0,0,0-.461,1.916v.394a3.456,3.456,0,0,0,.456,1.926,1.6,1.6,0,0,0,2.6.025,3.44,3.44,0,0,0,.456-1.922v-.394a3.407,3.407,0,0,0-.456-1.936A1.487,1.487,0,0,0,227.861,245.758Z"/><path class="b" d="M240.862,240.5H214.821a3.106,3.106,0,0,0-3.106,3.106v9.859a3.106,3.106,0,0,0,3.106,3.106h26.041a3.106,3.106,0,0,0,3.106-3.106v-9.859A3.106,3.106,0,0,0,240.862,240.5ZM218.138,250.73a1.389,1.389,0,0,0,1.253.607,1.648,1.648,0,0,0,1.154-.354,1.594,1.594,0,0,0,.437-1.092h1.669a2.86,2.86,0,0,1-.965,2.056,3.384,3.384,0,0,1-2.295.752,3.049,3.049,0,0,1-2.45-1.049,4.3,4.3,0,0,1-.892-2.878v-.5a4.853,4.853,0,0,1,.411-2.056,3.091,3.091,0,0,1,1.177-1.366,3.672,3.672,0,0,1,4.035.276,3.073,3.073,0,0,1,.99,2.107h-1.669a1.686,1.686,0,0,0-.437-1.137,1.611,1.611,0,0,0-1.142-.354,1.415,1.415,0,0,0-1.249.6,3.349,3.349,0,0,0-.425,1.855v.61A3.577,3.577,0,0,0,218.138,250.73Zm13.172-2.009a4.886,4.886,0,0,1-.423,2.1,3.19,3.19,0,0,1-1.21,1.39,3.569,3.569,0,0,1-3.6.005,3.2,3.2,0,0,1-1.224-1.382,4.755,4.755,0,0,1-.439-2.066v-.4a4.851,4.851,0,0,1,.431-2.1,3.2,3.2,0,0,1,1.218-1.4,3.568,3.568,0,0,1,3.6,0,3.208,3.208,0,0,1,1.217,1.4,4.838,4.838,0,0,1,.432,2.1Zm7.509.327a3.4,3.4,0,0,1-2.255.687H235.1v2.852h-1.668v-8.1h3.159a3.657,3.657,0,0,1,1.6.334,2.462,2.462,0,0,1,1.065.948,2.64,2.64,0,0,1,.373,1.4A2.329,2.329,0,0,1,238.819,249.048Z"/><path class="b" d="M207.877,249.464a.633.633,0,1,0-1.11.608l1.381,2.525c-3.738-.42-5.95-2.946-5.95-6.979a.633.633,0,0,0-1.266,0c0,4.428,2.375,7.4,6.318,8.146l-2.189,1.283a.633.633,0,0,0,.321,1.179.64.64,0,0,0,.319-.086l4.412-2.589Z"/><path class="b" d="M236.113,229.948l2.189-1.283a.633.633,0,0,0-.64-1.093l-4.412,2.588,2.236,4.087a.631.631,0,0,0,.555.329.614.614,0,0,0,.3-.078.633.633,0,0,0,.252-.859l-1.382-2.525c3.739.421,5.951,2.947,5.951,6.98a.633.633,0,0,0,1.266,0C242.431,233.665,240.056,230.688,236.113,229.948Z"/></g></svg>