<svg xmlns="http://www.w3.org/2000/svg" width="33.067" height="33.783" viewBox="0 0 33.067 33.783"><defs><style>.a{fill:#504741;}</style></defs><g transform="translate(-251.108 -289.487)"><ellipse class="a" cx="0.827" cy="1.238" rx="0.827" ry="1.238" transform="translate(254.39 312.041)"/><ellipse class="a" cx="0.827" cy="1.238" rx="0.827" ry="1.238" transform="translate(259.114 312.041)"/><ellipse class="a" cx="0.827" cy="1.238" rx="0.827" ry="1.238" transform="translate(254.39 316.919)"/><ellipse class="a" cx="0.827" cy="1.238" rx="0.827" ry="1.238" transform="translate(259.114 316.919)"/><path class="a" d="M270.85,308.167h-9.111l-.315.016c-.057,0-.11-.016-.168-.016h-6.87a3.281,3.281,0,0,0-3.278,3.278v8.547a3.282,3.282,0,0,0,3.278,3.278H270.85a2.944,2.944,0,0,0,2.941-2.941v-9.221A2.944,2.944,0,0,0,270.85,308.167Zm-16.464,13.1a1.279,1.279,0,0,1-1.278-1.278v-8.547a1.279,1.279,0,0,1,1.278-1.278h6.87a1.251,1.251,0,0,1,.387.078,1.326,1.326,0,0,1,.2.079,1.811,1.811,0,0,1,.362.277,1.274,1.274,0,0,1,.151.224,1.15,1.15,0,0,1,.09.16,1.258,1.258,0,0,1,.093.46v8.547a1.262,1.262,0,0,1-.093.46,1.138,1.138,0,0,1-.09.159,1.274,1.274,0,0,1-.151.224,1.433,1.433,0,0,1-.944.435Zm12.087-6.787c-.457,0-.827-.555-.827-1.239s.37-1.238.827-1.238.828.554.828,1.238S266.93,314.483,266.473,314.483Zm4.316,4.315c-.457,0-.828-.554-.828-1.238s.371-1.239.828-1.239.827.555.827,1.239S271.246,318.8,270.789,318.8Z"/><path class="a" d="M271.646,295.833a4.345,4.345,0,1,1,6.347,3.829l-.35.184a4.294,4.294,0,0,1-.843.257.994.994,0,0,0,.12,1.971,6.359,6.359,0,0,0,3.053-1.333l.022-.026a6.286,6.286,0,0,0,2.341-4.882,6.345,6.345,0,1,0-9.908,5.222l-.843,5.186a4.893,4.893,0,0,1,1.911.708l1.13-6.952-.638-.335A4.326,4.326,0,0,1,271.646,295.833Z"/><path class="a" d="M281.8,314.9l-2-12.274a7.838,7.838,0,0,1-1.9.763l1.845,11.348H277.33a1,1,0,0,0,0,2h3.494a1.334,1.334,0,0,1,1.3,1.118H278.2a1,1,0,0,0,0,2h3.977v1.319h-6.469a4.9,4.9,0,0,1-.83,2h8.3a1,1,0,0,0,1-1v-4.087A3.345,3.345,0,0,0,281.8,314.9Z"/></g></svg>