<svg xmlns="http://www.w3.org/2000/svg" width="21.517" height="35.935" viewBox="0 0 21.517 35.935"><defs><style>.a{fill:#504741;}</style></defs><g transform="translate(-140.961 -290.101)"><path class="a" d="M161.64,303.407l-8.943-5.255a1.077,1.077,0,0,0,.023-.113v-.48a3.8,3.8,0,1,0-4.8-3.662,1,1,0,0,0,2,0,1.8,1.8,0,1,1,1.8,1.8,1,1,0,0,0-1,1v1.346a1.008,1.008,0,0,0,.022.112l-8.943,5.256a1.693,1.693,0,0,0,.858,3.153h4.1v1.449a.779.779,0,0,0,.017.084l-1.041.6a2.32,2.32,0,0,0,0,4.02l1.025.592v3.106l-1.024.591a2.321,2.321,0,0,0,0,4.021l1.025.591v3.049a1,1,0,0,0,2,0v-2.347a2.329,2.329,0,0,0,1.024-.3,2.3,2.3,0,0,0,1.16-2.01v-1.993a2.295,2.295,0,0,0-2.184-2.308v-1.7a2.295,2.295,0,0,0,2.184-2.308v-1.993a2.295,2.295,0,0,0-2.184-2.307v-2.864a1,1,0,0,0-2,0v.023h-2.975l7.936-4.663,7.935,4.663h-1.1a1,1,0,0,0,0,2h2.232a1.693,1.693,0,0,0,.858-3.153Zm-12.7,14.611v1.993a.307.307,0,0,1-.161.277.3.3,0,0,1-.321,0l-1.727-1a.32.32,0,0,1,0-.555l1.727-1a.321.321,0,0,1,.482.278Zm0-8.31V311.7a.308.308,0,0,1-.161.279.312.312,0,0,1-.321,0l-1.727-1a.321.321,0,0,1,0-.556l1.727-1a.314.314,0,0,1,.321,0A.307.307,0,0,1,148.943,309.708Z"/><path class="a" d="M156.466,308.559a1.053,1.053,0,0,0-.18-.114v-3.908a1,1,0,0,0-2,0v.023h-3.27a1,1,0,0,0,0,2h3.27v2.031c-.019.019-.047.028-.064.049a1,1,0,0,0-.224.811l.583,3.535a9.824,9.824,0,0,1,0,3.21l-.58,3.487a.993.993,0,0,0,.224.81c.025.03.062.043.09.07a.922.922,0,0,0-.026.129v4.344a1,1,0,0,0,2,0v-4.309a.985.985,0,0,0,.24-.152l5.075-4.787a1,1,0,0,0,.314-.727v-.939a1,1,0,0,0-.315-.728Zm3.449,6.07-3.616,3.41.252-1.515a11.817,11.817,0,0,0,0-3.864l-.248-1.5,3.609,3.4Z"/></g></svg>