<svg xmlns="http://www.w3.org/2000/svg" width="34.465" height="33.6" viewBox="0 0 34.465 33.6"><defs><style>.a{fill:#504741;}</style></defs><g transform="translate(-396.788 -290.858)"><path class="a" d="M397.788,309.985h32.465a1,1,0,1,0,0-2H409.415a3,3,0,0,0,.4-.941l.642-2.757a.97.97,0,0,0,.839-.978,1,1,0,0,0-.423-.812l.009-.039h-.063a.888.888,0,0,0-.467-.149h-4.34v-.971c.008-.21.011-.429,0-.665v-1.145a7.392,7.392,0,0,0,4.6-7.483l-.093-1.187-1.154.3a6.794,6.794,0,0,0-5,4.8,7.373,7.373,0,0,0-4.178-2.708l-1.153-.3-.093,1.187c-.172,2.2.707,6.568,5.069,8.164v.011h-4.873a.888.888,0,0,0-.467.149h0a.994.994,0,0,0-.477.85.97.97,0,0,0,.9.991l.637,2.744a3,3,0,0,0,.4.941h-2.343a1,1,0,0,0,0,2Zm10.736-16.365a5.086,5.086,0,0,1-2.422,3.667A5.023,5.023,0,0,1,408.524,293.62Zm-7.514,2.058a5.658,5.658,0,0,1,2.925,4.412A5.772,5.772,0,0,1,401.01,295.678Zm5.4,11.665h-3.783a.968.968,0,0,1-.947-.752l-.5-2.133h5.9Z"/><path class="a" d="M430.253,313.356a1,1,0,1,0,0-2H397.788a1,1,0,0,0,0,2h1.6V315.8l-2.508,2.508,2.508,2.508v2.642a1,1,0,0,0,2,0v-2.642l2.507-2.508-2.507-2.508v-2.444h7.089V315.8l-2.507,2.508,2.507,2.508v2.642a1,1,0,0,0,2,0v-2.642l2.508-2.508-2.508-2.508v-2.444h7.089V315.8l-2.508,2.508,2.508,2.508v2.642a1,1,0,0,0,2,0v-2.642l2.508-2.508-2.508-2.508v-2.444h7.089V315.8l-2.508,2.508,2.508,2.508v2.642a1,1,0,0,0,2,0v-2.642l2.508-2.508-2.508-2.508v-2.444Zm-29.866,5.632-.68-.68.68-.679.679.679Zm9.089,0-.679-.68.679-.679.68.679Zm9.089,0-.679-.68.679-.679.68.679Zm9.089,0-.68-.68.68-.679.68.679Z"/></g></svg>