<svg xmlns="http://www.w3.org/2000/svg" width="59.732" height="31.813" viewBox="0 0 59.732 31.813"><defs><style>.a{fill:#fcda5f;}.b{fill:#008c44;}</style></defs><g transform="translate(-19.397 -171.863)"><rect class="a" width="28.165" height="12.233" transform="translate(38.474 188.301)"/><path class="b" d="M26.859,175.6l2.461,6.539,2.455-6.539h1.916v8.531H32.215v-2.812l.146-3.762-2.519,6.574H28.781l-2.513-6.568.146,3.756v2.812H24.937V175.6Z"/><path class="b" d="M38.1,184.247A2.948,2.948,0,0,1,35.9,183.4a3.1,3.1,0,0,1-.841-2.271v-.176a3.807,3.807,0,0,1,.367-1.7,2.786,2.786,0,0,1,1.028-1.163,2.722,2.722,0,0,1,1.477-.416,2.488,2.488,0,0,1,2,.826,3.5,3.5,0,0,1,.706,2.338v.574H36.5a1.9,1.9,0,0,0,.524,1.242,1.575,1.575,0,0,0,1.158.457,1.925,1.925,0,0,0,1.593-.791l.768.733a2.564,2.564,0,0,1-1.017.882A3.177,3.177,0,0,1,38.1,184.247Zm-.17-5.431a1.2,1.2,0,0,0-.947.41,2.13,2.13,0,0,0-.46,1.142h2.713v-.1a1.726,1.726,0,0,0-.381-1.081A1.188,1.188,0,0,0,37.928,178.816Z"/><path class="b" d="M43.529,176.249v1.541h1.119v1.055H43.529v3.539a.776.776,0,0,0,.144.524.663.663,0,0,0,.513.161,2.2,2.2,0,0,0,.5-.058v1.1a3.508,3.508,0,0,1-.938.135q-1.641,0-1.641-1.81v-3.592H41.062V177.79H42.1v-1.541Z"/><path class="b" d="M49.055,179.091a3.556,3.556,0,0,0-.58-.047,1.307,1.307,0,0,0-1.319.75v4.336H45.732v-6.34h1.36l.035.709a1.6,1.6,0,0,1,1.43-.826,1.328,1.328,0,0,1,.5.082Z"/><path class="b" d="M49.477,180.9a3.738,3.738,0,0,1,.369-1.679,2.7,2.7,0,0,1,1.037-1.149,2.926,2.926,0,0,1,1.535-.4,2.769,2.769,0,0,1,2.083.826,3.251,3.251,0,0,1,.864,2.192l.006.334a3.771,3.771,0,0,1-.36,1.675,2.665,2.665,0,0,1-1.032,1.143,2.945,2.945,0,0,1-1.549.4,2.752,2.752,0,0,1-2.148-.893,3.424,3.424,0,0,1-.805-2.382Zm1.423.123a2.551,2.551,0,0,0,.4,1.532,1.411,1.411,0,0,0,2.247-.009,2.826,2.826,0,0,0,.4-1.646,2.525,2.525,0,0,0-.413-1.524,1.393,1.393,0,0,0-2.229-.009A2.765,2.765,0,0,0,50.9,181.025Z"/><path class="b" d="M60.129,182.407a.646.646,0,0,0-.314-.58,3.311,3.311,0,0,0-1.04-.351,5.4,5.4,0,0,1-1.213-.387A1.62,1.62,0,0,1,56.5,179.6a1.689,1.689,0,0,1,.691-1.371,2.735,2.735,0,0,1,1.758-.551,2.844,2.844,0,0,1,1.837.562,1.785,1.785,0,0,1,.7,1.459H60.059a.878.878,0,0,0-.3-.682,1.167,1.167,0,0,0-.809-.273,1.264,1.264,0,0,0-.764.217.682.682,0,0,0-.3.58.578.578,0,0,0,.275.51,3.8,3.8,0,0,0,1.113.366,5.272,5.272,0,0,1,1.316.44,1.866,1.866,0,0,1,.709.612,1.562,1.562,0,0,1,.231.867,1.651,1.651,0,0,1-.709,1.386,3.025,3.025,0,0,1-1.857.53,3.285,3.285,0,0,1-1.389-.281,2.293,2.293,0,0,1-.949-.773,1.831,1.831,0,0,1-.34-1.061h1.383a1,1,0,0,0,.381.776,1.477,1.477,0,0,0,.931.273,1.438,1.438,0,0,0,.856-.214A.663.663,0,0,0,60.129,182.407Z"/><path class="b" d="M29.847,196.068a.633.633,0,0,0-1.11.608l1.381,2.525c-3.739-.42-5.951-2.946-5.951-6.979a.632.632,0,1,0-1.265,0c0,4.428,2.374,7.4,6.318,8.146l-2.19,1.283a.633.633,0,0,0,.641,1.092l4.412-2.588Z"/><path class="b" d="M72.81,174.352,75,173.069a.633.633,0,0,0-.64-1.093l-4.412,2.588,2.235,4.087a.633.633,0,0,0,1.11-.608l-1.381-2.525c3.739.42,5.951,2.947,5.951,6.98a.633.633,0,0,0,1.266,0C79.129,178.069,76.754,175.092,72.81,174.352Z"/><path class="b" d="M55.243,193.346a1.445,1.445,0,0,0-1.1.477,2.321,2.321,0,0,0-.551,1.339h3.176v-.082a2.066,2.066,0,0,0-.446-1.28A1.359,1.359,0,0,0,55.243,193.346Z"/><path class="b" d="M44.925,191.3H42.839v3.351h2.022a2.022,2.022,0,0,0,1.383-.425,1.558,1.558,0,0,0,.48-1.23,1.608,1.608,0,0,0-.48-1.221A1.9,1.9,0,0,0,44.925,191.3Z"/><path class="b" d="M66.84,186.027H39.075a4,4,0,0,0-4,4v9.649a4,4,0,0,0,4,4H66.84a4,4,0,0,0,4-4v-9.649A4,4,0,0,0,66.84,186.027ZM47.073,194.9a3.3,3.3,0,0,1-2.224.671h-2.01v3.34H41.714v-8.531h3.147a3.159,3.159,0,0,1,2.194.715,2.423,2.423,0,0,1,.794,1.892A2.391,2.391,0,0,1,47.073,194.9Zm3.579,4.011H49.568v-6.34h1.084ZM50.6,191.33a.628.628,0,0,1-.481.176.615.615,0,0,1-.477-.176.622.622,0,0,1-.162-.439.648.648,0,0,1,.162-.446.6.6,0,0,1,.477-.181.616.616,0,0,1,.481.181.645.645,0,0,1,.164.446A.619.619,0,0,1,50.6,191.33Zm7.251,4.723h-4.3a2.25,2.25,0,0,0,.547,1.514,1.723,1.723,0,0,0,1.333.578,1.88,1.88,0,0,0,.973-.235,2.428,2.428,0,0,0,.7-.621l.663.516a2.665,2.665,0,0,1-2.391,1.224,2.772,2.772,0,0,1-2.1-.846,3.145,3.145,0,0,1-.808-2.265v-.2a3.809,3.809,0,0,1,.36-1.685,2.806,2.806,0,0,1,1.008-1.16,2.534,2.534,0,0,1,1.4-.419,2.375,2.375,0,0,1,1.922.815,3.526,3.526,0,0,1,.686,2.332Zm5.709,2.464a2.85,2.85,0,0,1-1.764.512,3.185,3.185,0,0,1-1.347-.269,2.19,2.19,0,0,1-.917-.753,1.812,1.812,0,0,1-.331-1.046h1.084a1.122,1.122,0,0,0,.436.864,1.694,1.694,0,0,0,1.075.32,1.749,1.749,0,0,0,.988-.249.766.766,0,0,0,.372-.665.8.8,0,0,0-.331-.683,3.191,3.191,0,0,0-1.155-.419,5.454,5.454,0,0,1-1.306-.422,1.847,1.847,0,0,1-.715-.586,1.4,1.4,0,0,1-.232-.808,1.645,1.645,0,0,1,.66-1.319,2.575,2.575,0,0,1,1.684-.539,2.649,2.649,0,0,1,1.749.557,1.769,1.769,0,0,1,.671,1.424h-1.09a.979.979,0,0,0-.378-.768,1.414,1.414,0,0,0-.952-.322,1.484,1.484,0,0,0-.926.258.811.811,0,0,0-.334.673.658.658,0,0,0,.311.592,3.811,3.811,0,0,0,1.122.381,5.819,5.819,0,0,1,1.315.434,1.931,1.931,0,0,1,.748.606,1.492,1.492,0,0,1,.243.864A1.624,1.624,0,0,1,63.56,198.517Z"/><path class="b" d="M33.976,188.032H23.4a2.524,2.524,0,0,1-2.52-2.52v-9.649a2.523,2.523,0,0,1,2.52-2.52H63.245a2.522,2.522,0,0,1,2.52,2.52v8.684h1.48v-8.684a4,4,0,0,0-4-4H23.4a4,4,0,0,0-4,4v9.649a4,4,0,0,0,4,4H33.621A5.411,5.411,0,0,1,33.976,188.032Z"/></g></svg>