<svg xmlns="http://www.w3.org/2000/svg" width="16.517" height="17.435" viewBox="0 0 16.517 17.435"><defs><style>.a{fill:#504741;}</style></defs><path class="a" d="M303.55,201.255V195.75L300.8,193l-2.753,2.753v1.835h-5.505v12.847h16.517v-9.177Zm-7.341,7.341h-1.835v-1.835h1.835Zm0-3.67h-1.835v-1.835h1.835Zm0-3.671h-1.835V199.42h1.835Zm5.506,7.341H299.88v-1.835h1.835Zm0-3.67H299.88v-1.835h1.835Zm0-3.671H299.88V199.42h1.835Zm0-3.67H299.88V195.75h1.835Zm5.506,11.011h-1.836v-1.835h1.836Zm0-3.67h-1.836v-1.835h1.836Z" transform="translate(-292.539 -192.997)"/></svg>