<svg xmlns="http://www.w3.org/2000/svg" width="38.516" height="42.752" viewBox="0 0 38.516 42.752"><defs><style>.a{fill:#008c44;}</style></defs><g transform="translate(-493.818 -286.109)"><path class="a" d="M531.574,314.351a1.913,1.913,0,0,0-1.507-.774l-3.561.652a2.657,2.657,0,0,0,.1-2.161,2.45,2.45,0,0,0-3.145-1.169,70.986,70.986,0,0,0-6.774,2.577l-.307.13a3.293,3.293,0,0,0-.648-.483l-.25-.14-7.416.382a14.715,14.715,0,0,0-6.832,2.1l-6.427,3.889a2.048,2.048,0,0,0-.693,2.812l.021.034,3.6,5.706a2.044,2.044,0,0,0,1.36.922,1.9,1.9,0,0,0,.369.033,2.052,2.052,0,0,0,1.233-.41l2.379-1.788a10.845,10.845,0,0,1,6.382-2.187l5.232-.082a20.649,20.649,0,0,0,7.566-1.556l8.013-3.4a3.337,3.337,0,0,0,1.975-2.322A3.075,3.075,0,0,0,531.574,314.351Zm-1.277,2.307a1.343,1.343,0,0,1-.8.935l-8.012,3.4a18.624,18.624,0,0,1-6.827,1.4l-5.232.082a12.841,12.841,0,0,0-7.553,2.587l-2.448,1.776-3.587-5.774,6.427-3.889a12.714,12.714,0,0,1,5.9-1.811l6.8-.35a1.288,1.288,0,0,1,.177,1.789l-.359.449-8.844.517a1,1,0,0,0,.117,2h0l9.732-.569.91-1.138,13.314-2.453c.017.016.036.036.058.061A1.1,1.1,0,0,1,530.3,316.658Z"/><path class="a" d="M504.859,308.191l-.008.013,4.437,2.417a4,4,0,0,0,1.06.5c.056,0,.969-.045,1.025-.053l9.079-1.179-.009-.061c.025,0,.046.014.071.014a1.018,1.018,0,0,0,1.019-1.017v-9.711c0-.03-.014-.055-.016-.084a1.241,1.241,0,0,0-.637-1.151l-5.279-2.871a6.53,6.53,0,0,0-.968-.3l-3.26-.9a2.9,2.9,0,0,0-2.085.212l-3.917,2c-.7.4-1.031.671-1.132,1.2a1.27,1.27,0,0,0-.008.254c0,.025-.015.047-.015.074v9.709A1.017,1.017,0,0,0,504.859,308.191Zm9.887-8.812a1.821,1.821,0,0,1,1.6-.176l3.152,1.146v7.616l-1.376.189v-5.847l-2.125.218v5.921l-4.622.378v-2.039h2.86v-3.61h-2.86v-1.51Zm-8.492-.05,3.216,1.822v7.328l-3.216-1.822Z"/><path class="a" d="M500.665,296.631a.954.954,0,0,1-.271-.037l-3.924-1.1a1,1,0,1,1,.535-1.927h0l3.924,1.1a1,1,0,0,1-.268,1.963Z"/><path class="a" d="M508.144,291.816a1,1,0,0,1-.93-.634l-1.457-3.7a1,1,0,0,1,1.862-.733l1.456,3.7a1,1,0,0,1-.561,1.3h0A1.018,1.018,0,0,1,508.144,291.816Z"/><path class="a" d="M515.767,291.885a.956.956,0,0,1-.318-.052,1,1,0,0,1-.63-1.266l1.267-3.775a1,1,0,0,1,1.9.637l-1.267,3.775A1,1,0,0,1,515.767,291.885Z"/><path class="a" d="M522.559,296.785a1,1,0,0,1-.288-1.958l4.236-1.274a1,1,0,1,1,.577,1.916l-4.237,1.274A1,1,0,0,1,522.559,296.785Z"/></g></svg>