<svg xmlns="http://www.w3.org/2000/svg" xmlns:xlink="http://www.w3.org/1999/xlink" width="47" height="47" viewBox="0 0 47 47"><defs><style>.a{fill:#008c44;}.b{fill:#fcda5f;}.c{filter:url(#a);}</style><filter id="a" x="0" y="0" width="47" height="47" filterUnits="userSpaceOnUse"><feOffset input="SourceAlpha"/><feGaussianBlur stdDeviation="3" result="b"/><feFlood flood-opacity="0.161"/><feComposite operator="in" in2="b"/><feComposite in="SourceGraphic"/></filter></defs><g transform="translate(8.649 9)"><g class="c" transform="matrix(1, 0, 0, 1, -8.65, -9)"><circle class="a" cx="14.5" cy="14.5" r="14.5" transform="translate(9 9)"/></g><path class="b" d="M2.766,8.067a.692.692,0,0,0-.692-.692H.692a.692.692,0,0,0,0,1.383H2.074A.692.692,0,0,0,2.766,8.067Zm.692,3.918a.691.691,0,0,0-.489.2l-.922.922a.691.691,0,1,0,.978.978l.922-.922a.691.691,0,0,0-.489-1.18Zm4.61-9.22a.691.691,0,0,0,.692-.692V.692a.692.692,0,0,0-1.383,0V2.074A.691.691,0,0,0,8.067,2.766Zm4.61,1.383a.689.689,0,0,0,.489-.2l.922-.922a.691.691,0,1,0-.978-.978l-.922.922a.691.691,0,0,0,.489,1.18Zm-9.709-.2a.692.692,0,0,0,.978-.978l-.922-.922a.692.692,0,0,0-.978.978ZM15.443,7.376H14.06a.692.692,0,0,0,0,1.383h1.383a.692.692,0,0,0,0-1.383Zm-2.277,4.812a.692.692,0,0,0-.978.978l.922.922a.691.691,0,0,0,1.181-.489C14.291,13.408,14.213,13.236,13.166,12.188Zm-5.1,1.181a.691.691,0,0,0-.692.692v1.383a.692.692,0,0,0,1.383,0V14.06A.691.691,0,0,0,8.067,13.369Zm0-10.142a4.84,4.84,0,1,0,4.84,4.84A4.846,4.846,0,0,0,8.067,3.227Z" transform="translate(5.693 6.262)"/></g></svg>