<svg xmlns="http://www.w3.org/2000/svg" width="31.708" height="38.009" viewBox="0 0 31.708 38.009"><defs><style>.a{fill:#504741;}</style></defs><g transform="translate(-49.244 -287.349)"><path class="a" d="M63.481,307.21a1,1,0,1,0-.16,1.991c.02,0,.05.009.08.009a1,1,0,0,0,.08-2Z"/><path class="a" d="M67.471,307.221a.987.987,0,0,0-1,.989,1,1,0,0,0,.99,1.011h.01a1.009,1.009,0,0,0,1-1A1,1,0,0,0,67.471,307.221Z"/><path class="a" d="M71.5,307.21a1,1,0,0,0,.08,2c.03,0,.06-.009.08-.009a1,1,0,1,0-.16-1.991Z"/><path class="a" d="M60.72,292.7a1,1,0,0,0-1-1h-.045a.981.981,0,0,0-.978,1,1.02,1.02,0,0,0,1.023,1A1,1,0,0,0,60.72,292.7Z"/><path class="a" d="M57.808,302.106a7.357,7.357,0,0,0,1.234-.1,1,1,0,0,0-.333-1.972,5.516,5.516,0,0,1-.9.075,5.379,5.379,0,1,1,4.589-8.162.986.986,0,0,0-.365.757,1,1,0,0,0,1,1h2.174a2.776,2.776,0,0,1,2.774,2.773v2.268H66.309v-1.513a1.572,1.572,0,0,0-1.57-1.571H58.217a.98.98,0,0,1-.979-.979.962.962,0,0,1,.229-.628,1,1,0,0,0-1.534-1.285,2.979,2.979,0,0,0,2.284,4.892h6.092v1.084h-.515a2.021,2.021,0,0,0-1.994,1.736l-.349,2.495A2,2,0,0,0,62.66,305.1c0,.011-.008.019-.009.03a.985.985,0,0,0,.91,1.079.253.253,0,0,0,.09.011,1,1,0,0,0,.99-.92c0-.012,0-.023,0-.035H66.5a1,1,0,0,0,.979.955h.01a1,1,0,0,0,.991-.955h1.863c0,.012-.005.023,0,.035a1,1,0,0,0,.99.92.253.253,0,0,0,.09-.011.985.985,0,0,0,.91-1.079.932.932,0,0,0-.063-.221,1.97,1.97,0,0,0,.389-.335,2.017,2.017,0,0,0,.476-1.6l-.348-2.5a2.023,2.023,0,0,0-2-1.736h-.81v-2.268a4.778,4.778,0,0,0-4.774-4.773h-.718a1,1,0,0,0-.066-.249,7.379,7.379,0,1,0-6.614,10.654Zm11.172-1.364,1.824.011.334,2.513-7.706-.017.362-2.507H68.98Z"/><path class="a" d="M79,312.193H71.895l.016,0a1.007,1.007,0,1,0-.121,0H67.539a.976.976,0,0,0,.9-.972.988.988,0,0,0-.99-1,.987.987,0,0,0-.1,1.972h-3.4c-.023-.109-.046-.217-.078-.322a.984.984,0,0,0-.645-1.67.966.966,0,0,0-.377.042,3.816,3.816,0,0,0-2.447-1.005l-2.8-.121a3.307,3.307,0,0,0-3.456,3.076H51.195a1.953,1.953,0,0,0-1.951,1.951v9.882a1,1,0,0,0,2,0l-.049-9.833,2.854-.005-.471,9.725a1,1,0,0,0,2,.1l.1-2.107h1.954l-.08,2.05a1,1,0,0,0,.96,1.039h.039a1,1,0,0,0,1-.961l.043-1.1h1.983l-.064,1.325a1,1,0,0,0,.951,1.048h.049c.224,0,.963.041,1.2.053h.05a1,1,0,0,0,1-.951l.5-10.239,13.689-.024v9.882a1,1,0,0,0,2,0v-9.882A1.953,1.953,0,0,0,79,312.193Zm-19.329,8.682.131-3.339a1,1,0,1,0-2-.078l-.094,2.389H55.778l.361-7.479a1.309,1.309,0,0,1,1.384-1.253l2.8.121a1.794,1.794,0,0,1,1.293.565,1.829,1.829,0,0,1,.441,1.316l-.378,7.758Z"/></g></svg>