<svg xmlns="http://www.w3.org/2000/svg" width="32.387" height="34.058" viewBox="0 0 32.387 34.058"><defs><style>.a{fill:#504741;}.b{fill:none;stroke:#504741;stroke-miterlimit:10;stroke-width:2px;}</style></defs><g transform="translate(-312.807 -291.639)"><path class="a" d="M318.41,309.207c.162,0,.323.007.484.022a5.587,5.587,0,0,1,3.633-1.347,5.494,5.494,0,0,1,1.39.2l1-.572a4.8,4.8,0,0,1,1.2-.491l-.391-3.724v-.1a4.691,4.691,0,0,1,1.125-3.029l-1.265-7.087-2.222,12.776-1.727-10.488-2.273,12.157.068-7.577-1.334-8.3-3.109,18.748A5.557,5.557,0,0,1,318.41,309.207Z"/><path class="b" d="M330.206,325.7"/><path class="b" d="M321.837,321.793"/><path class="a" d="M345.194,311.605c0-1.512-.826-2.737-2.337-2.737-1.028,0-.861-.833-.861-1.861l.4-3.82a2.737,2.737,0,0,0-2.737-2.737,1.861,1.861,0,0,1-1.861-1.861V294.77a2.736,2.736,0,1,0-5.473,0v3.819a1.861,1.861,0,0,1-1.861,1.861,2.737,2.737,0,0,0-2.737,2.737l.4,3.82c0,1.028.167,1.861-.861,1.861a2.705,2.705,0,0,0-1.356.373,5.17,5.17,0,0,1,1.81,3.084,6.783,6.783,0,0,1,3.276,8.63h3.756V313.54l-3.956-3.326.936-1.288,3.22,2.728v-7.247h1.4l.2,11.177,4.1-3.5.842.966-5.145,4.483v3.419h3.761a5.081,5.081,0,0,0,5.081-5.081v-1a2.284,2.284,0,0,0-.028-.275c.013-.151.028-.3.028-.46Z"/><path class="a" d="M326.113,313.474v-.006a3.584,3.584,0,0,0-6.52-2.057,3.58,3.58,0,0,0-4.621,4.4,4.126,4.126,0,0,0-2.165,3.631c0,2.279,1.847,2.726,4.126,2.726.538,0,1.85-.033,3.248-.07l.4-1.974-3.107-4.382,1-.8,2.6,3.45,1.747-4.577,1.135.466-1.847,5.633,2.372-.652.313,1.3-2.957.71.144.778c.993-.025,2.055-.045,2.471-.045,2.818,0,5.1-.884,5.1-3.7A5.1,5.1,0,0,0,326.113,313.474Z"/></g></svg>