<svg xmlns="http://www.w3.org/2000/svg" width="46.376" height="30.31" viewBox="0 0 46.376 30.31"><defs><style>.a{fill:#fcda5f;}.b{fill:#008c44;}</style></defs><g transform="translate(-108.938 -274.612)"><rect class="a" width="25.517" height="10.283" transform="translate(126.692 291.298)"/><path class="b" d="M121.429,290.684H113.5a3.3,3.3,0,0,1-3.3-3.3v-8.209a3.3,3.3,0,0,1,3.3-3.3h24.39a3.3,3.3,0,0,1,3.3,3.3V286.5h1.266v-7.324a4.569,4.569,0,0,0-4.564-4.564H113.5a4.57,4.57,0,0,0-4.565,4.564v8.209a4.57,4.57,0,0,0,4.565,4.565h7.7A5.751,5.751,0,0,1,121.429,290.684Z"/><path class="b" d="M119.223,298.16a.633.633,0,1,0-1.11.608l1.382,2.525c-3.739-.42-5.951-2.947-5.951-6.979a.632.632,0,1,0-1.265,0c0,4.428,2.374,7.4,6.318,8.145l-2.19,1.284a.633.633,0,1,0,.64,1.092l4.413-2.588Z"/><path class="b" d="M147.459,277.844l2.19-1.284a.633.633,0,0,0-.64-1.092l-4.413,2.588,2.236,4.087a.633.633,0,0,0,.556.329.624.624,0,0,0,.3-.078.632.632,0,0,0,.252-.859l-1.381-2.525c3.739.42,5.951,2.946,5.951,6.979a.632.632,0,1,0,1.265,0C153.777,281.561,151.4,278.584,147.459,277.844Z"/><path class="b" d="M120.466,284.633a2.86,2.86,0,0,1-.965,2.056,3.384,3.384,0,0,1-2.295.752,3.051,3.051,0,0,1-2.45-1.048,4.308,4.308,0,0,1-.892-2.879v-.495a4.854,4.854,0,0,1,.411-2.057,3.091,3.091,0,0,1,1.177-1.366,3.677,3.677,0,0,1,4.035.276,3.076,3.076,0,0,1,.99,2.107h-1.669a1.686,1.686,0,0,0-.437-1.137,1.611,1.611,0,0,0-1.142-.353,1.417,1.417,0,0,0-1.249.6,3.349,3.349,0,0,0-.425,1.855v.611a3.576,3.576,0,0,0,.4,1.919,1.389,1.389,0,0,0,1.253.607,1.648,1.648,0,0,0,1.154-.354,1.594,1.594,0,0,0,.437-1.092Z"/><path class="b" d="M129.125,283.464a4.885,4.885,0,0,1-.423,2.1,3.185,3.185,0,0,1-1.21,1.39,3.569,3.569,0,0,1-3.6.005,3.2,3.2,0,0,1-1.224-1.381,4.759,4.759,0,0,1-.439-2.067v-.4a4.859,4.859,0,0,1,.431-2.105,3.2,3.2,0,0,1,1.218-1.4,3.575,3.575,0,0,1,3.6,0,3.208,3.208,0,0,1,1.217,1.4,4.842,4.842,0,0,1,.432,2.1Zm-1.691-.366a3.412,3.412,0,0,0-.456-1.936,1.611,1.611,0,0,0-2.6-.008,3.36,3.36,0,0,0-.461,1.915v.395a3.453,3.453,0,0,0,.456,1.925,1.6,1.6,0,0,0,2.6.025,3.438,3.438,0,0,0,.456-1.922Z"/><path class="b" d="M132.916,284.477v2.853h-1.668v-8.1h3.159a3.657,3.657,0,0,1,1.6.333,2.462,2.462,0,0,1,1.065.948,2.645,2.645,0,0,1,.373,1.4,2.329,2.329,0,0,1-.815,1.878,3.4,3.4,0,0,1-2.255.687Zm0-1.352h1.491a1.468,1.468,0,0,0,1.01-.312,1.133,1.133,0,0,0,.347-.889,1.338,1.338,0,0,0-.35-.962,1.308,1.308,0,0,0-.968-.378h-1.53Z"/><path class="b" d="M147.2,293.743h-.823v5.406h.806a1.811,1.811,0,0,0,1.5-.64,2.894,2.894,0,0,0,.529-1.83v-.429a2.935,2.935,0,0,0-.512-1.871A1.8,1.8,0,0,0,147.2,293.743Z"/><path class="b" d="M152.208,288.509h-26.04a3.107,3.107,0,0,0-3.107,3.106v9.86a3.107,3.107,0,0,0,3.107,3.106h26.04a3.106,3.106,0,0,0,3.106-3.106v-9.86A3.106,3.106,0,0,0,152.208,288.509Zm-17.688,9.216a2.727,2.727,0,0,1-.832,2.1,3.2,3.2,0,0,1-2.272.774,3.234,3.234,0,0,1-2.252-.752,2.676,2.676,0,0,1-.851-2.063v-5.394h1.668v5.344a1.543,1.543,0,0,0,.381,1.16,1.462,1.462,0,0,0,1.054.365q1.407,0,1.43-1.481v-5.388h1.674Zm4.257-2.514a4.454,4.454,0,0,0,1.17.5,5.09,5.09,0,0,1,2.075,1.063,2.118,2.118,0,0,1,.65,1.58,1.945,1.945,0,0,1-.795,1.648,3.472,3.472,0,0,1-2.141.6,4.121,4.121,0,0,1-1.7-.343,2.68,2.68,0,0,1-1.17-.936,2.394,2.394,0,0,1-.4-1.38h1.674q0,1.341,1.6,1.341a1.562,1.562,0,0,0,.929-.242.789.789,0,0,0,.333-.676.857.857,0,0,0-.333-.726,4.339,4.339,0,0,0-1.2-.533,8.634,8.634,0,0,1-1.373-.554,2.244,2.244,0,0,1-1.38-2.007,1.958,1.958,0,0,1,.37-1.172,2.4,2.4,0,0,1,1.063-.8,3.989,3.989,0,0,1,1.554-.29,3.646,3.646,0,0,1,1.546.314,2.467,2.467,0,0,1,1.054.888,2.313,2.313,0,0,1,.375,1.3H141a1.094,1.094,0,0,0-.35-.865,1.446,1.446,0,0,0-.985-.308,1.534,1.534,0,0,0-.951.259.813.813,0,0,0-.339.681A.78.78,0,0,0,138.777,295.211Zm12.125,1.418a4.242,4.242,0,0,1-.464,2.008,3.326,3.326,0,0,1-1.31,1.362,3.8,3.8,0,0,1-1.907.489h-2.509v-8.1H147.2a3.8,3.8,0,0,1,1.911.48,3.37,3.37,0,0,1,1.315,1.369,4.226,4.226,0,0,1,.472,2.017Z"/></g></svg>