<svg xmlns="http://www.w3.org/2000/svg" width="59.732" height="31.813" viewBox="0 0 59.732 31.813"><defs><style>.a{fill:#fcda5f;}.b{fill:#504741;}</style></defs><g transform="translate(-106.876 -171.863)"><rect class="a" width="28.165" height="12.233" transform="translate(125.953 188.301)"/><path class="b" d="M114.338,175.6l2.461,6.539,2.455-6.539h1.916v8.531h-1.476v-2.812l.146-3.762-2.519,6.574H116.26l-2.514-6.568.147,3.756v2.812h-1.477V175.6Z"/><path class="b" d="M125.576,184.247a2.947,2.947,0,0,1-2.194-.852,3.1,3.1,0,0,1-.841-2.271v-.176a3.807,3.807,0,0,1,.366-1.7,2.789,2.789,0,0,1,1.029-1.163,2.718,2.718,0,0,1,1.476-.416,2.486,2.486,0,0,1,2,.826,3.492,3.492,0,0,1,.706,2.338v.574h-4.142a1.9,1.9,0,0,0,.524,1.242,1.575,1.575,0,0,0,1.157.457,1.926,1.926,0,0,0,1.594-.791l.768.733a2.564,2.564,0,0,1-1.017.882A3.182,3.182,0,0,1,125.576,184.247Zm-.17-5.431a1.2,1.2,0,0,0-.946.41,2.13,2.13,0,0,0-.46,1.142h2.713v-.1a1.726,1.726,0,0,0-.381-1.081A1.189,1.189,0,0,0,125.406,178.816Z"/><path class="b" d="M131.008,176.249v1.541h1.119v1.055h-1.119v3.539a.776.776,0,0,0,.144.524.661.661,0,0,0,.512.161,2.2,2.2,0,0,0,.5-.058v1.1a3.5,3.5,0,0,1-.937.135q-1.641,0-1.641-1.81v-3.592h-1.043V177.79h1.043v-1.541Z"/><path class="b" d="M136.533,179.091a3.538,3.538,0,0,0-.58-.047,1.306,1.306,0,0,0-1.318.75v4.336h-1.424v-6.34h1.36l.035.709a1.6,1.6,0,0,1,1.429-.826,1.328,1.328,0,0,1,.5.082Z"/><path class="b" d="M136.955,180.9a3.738,3.738,0,0,1,.369-1.679,2.7,2.7,0,0,1,1.038-1.149,2.926,2.926,0,0,1,1.535-.4,2.769,2.769,0,0,1,2.083.826,3.251,3.251,0,0,1,.864,2.192l.006.334a3.758,3.758,0,0,1-.361,1.675,2.662,2.662,0,0,1-1.031,1.143,2.948,2.948,0,0,1-1.55.4,2.752,2.752,0,0,1-2.147-.893,3.424,3.424,0,0,1-.806-2.382Zm1.424.123a2.558,2.558,0,0,0,.4,1.532,1.315,1.315,0,0,0,1.125.553,1.3,1.3,0,0,0,1.122-.562,2.818,2.818,0,0,0,.4-1.646,2.525,2.525,0,0,0-.413-1.524,1.394,1.394,0,0,0-2.23-.009A2.772,2.772,0,0,0,138.379,181.025Z"/><path class="b" d="M147.608,182.407a.646.646,0,0,0-.314-.58,3.32,3.32,0,0,0-1.04-.351,5.385,5.385,0,0,1-1.213-.387,1.619,1.619,0,0,1-1.066-1.494,1.686,1.686,0,0,1,.691-1.371,2.735,2.735,0,0,1,1.758-.551,2.844,2.844,0,0,1,1.837.562,1.785,1.785,0,0,1,.7,1.459h-1.424a.877.877,0,0,0-.3-.682,1.167,1.167,0,0,0-.809-.273,1.269,1.269,0,0,0-.765.217.685.685,0,0,0-.3.58.577.577,0,0,0,.276.51,3.787,3.787,0,0,0,1.113.366,5.271,5.271,0,0,1,1.316.44,1.873,1.873,0,0,1,.709.612,1.562,1.562,0,0,1,.231.867,1.651,1.651,0,0,1-.709,1.386,3.027,3.027,0,0,1-1.857.53,3.285,3.285,0,0,1-1.389-.281,2.287,2.287,0,0,1-.949-.773,1.831,1.831,0,0,1-.34-1.061h1.383a1,1,0,0,0,.381.776,1.475,1.475,0,0,0,.931.273,1.44,1.44,0,0,0,.856-.214A.663.663,0,0,0,147.608,182.407Z"/><path class="b" d="M117.325,196.068a.633.633,0,0,0-1.11.608L117.6,199.2c-3.739-.42-5.951-2.946-5.951-6.979a.633.633,0,1,0-1.265,0c0,4.428,2.374,7.4,6.318,8.146l-2.19,1.283a.633.633,0,0,0,.321,1.179.626.626,0,0,0,.319-.087l4.413-2.588Z"/><path class="b" d="M160.289,174.352l2.19-1.283a.633.633,0,0,0-.64-1.093l-4.413,2.588,2.236,4.087a.633.633,0,0,0,1.11-.608l-1.381-2.525c3.739.42,5.951,2.947,5.951,6.98a.633.633,0,0,0,1.266,0C166.608,178.069,164.233,175.092,160.289,174.352Z"/><path class="b" d="M142.722,193.346a1.447,1.447,0,0,0-1.1.477,2.321,2.321,0,0,0-.55,1.339h3.175v-.082a2.06,2.06,0,0,0-.445-1.28A1.361,1.361,0,0,0,142.722,193.346Z"/><path class="b" d="M132.4,191.3h-2.086v3.351h2.022a2.018,2.018,0,0,0,1.382-.425A1.555,1.555,0,0,0,134.2,193a1.6,1.6,0,0,0-.481-1.221A1.893,1.893,0,0,0,132.4,191.3Z"/><path class="b" d="M154.319,186.027H126.553a4,4,0,0,0-4,4v9.649a4,4,0,0,0,4,4h27.766a4,4,0,0,0,4-4v-9.649A4,4,0,0,0,154.319,186.027ZM134.551,194.9a3.3,3.3,0,0,1-2.223.671h-2.01v3.34h-1.125v-8.531h3.147a3.159,3.159,0,0,1,2.194.715,2.423,2.423,0,0,1,.794,1.892A2.389,2.389,0,0,1,134.551,194.9Zm3.58,4.011h-1.084v-6.34h1.084Zm-.053-7.582a.64.64,0,0,1-1.119-.439.652.652,0,0,1,.161-.446.724.724,0,0,1,.958,0,.64.64,0,0,1,.164.446A.615.615,0,0,1,138.078,191.33Zm7.251,4.723h-4.295a2.255,2.255,0,0,0,.548,1.514,1.723,1.723,0,0,0,1.333.578,1.883,1.883,0,0,0,.973-.235,2.428,2.428,0,0,0,.7-.621l.662.516a2.662,2.662,0,0,1-2.39,1.224,2.771,2.771,0,0,1-2.1-.846,3.145,3.145,0,0,1-.809-2.265v-.2a3.809,3.809,0,0,1,.361-1.685,2.806,2.806,0,0,1,1.008-1.16,2.534,2.534,0,0,1,1.4-.419,2.375,2.375,0,0,1,1.922.815,3.526,3.526,0,0,1,.685,2.332Zm5.71,2.464a2.85,2.85,0,0,1-1.764.512,3.19,3.19,0,0,1-1.348-.269,2.2,2.2,0,0,1-.917-.753,1.82,1.82,0,0,1-.331-1.046h1.084a1.123,1.123,0,0,0,.437.864,1.692,1.692,0,0,0,1.075.32,1.747,1.747,0,0,0,.987-.249.766.766,0,0,0,.372-.665.8.8,0,0,0-.331-.683,3.176,3.176,0,0,0-1.154-.419,5.464,5.464,0,0,1-1.307-.422,1.851,1.851,0,0,1-.714-.586,1.4,1.4,0,0,1-.232-.808,1.647,1.647,0,0,1,.659-1.319,2.578,2.578,0,0,1,1.685-.539,2.649,2.649,0,0,1,1.749.557,1.769,1.769,0,0,1,.671,1.424h-1.09a.979.979,0,0,0-.378-.768,1.414,1.414,0,0,0-.952-.322,1.482,1.482,0,0,0-.926.258.811.811,0,0,0-.334.673.658.658,0,0,0,.311.592,3.811,3.811,0,0,0,1.122.381,5.836,5.836,0,0,1,1.315.434,1.92,1.92,0,0,1,.747.606,1.492,1.492,0,0,1,.243.864A1.623,1.623,0,0,1,151.039,198.517Z"/><path class="b" d="M121.455,188.032H110.876a2.524,2.524,0,0,1-2.52-2.52v-9.649a2.523,2.523,0,0,1,2.52-2.52h39.848a2.522,2.522,0,0,1,2.52,2.52v8.684h1.48v-8.684a4,4,0,0,0-4-4H110.876a4,4,0,0,0-4,4v9.649a4,4,0,0,0,4,4H121.1A5.411,5.411,0,0,1,121.455,188.032Z"/></g></svg>