<svg height="512pt" viewBox="0 0 512 512" width="512pt" xmlns="http://www.w3.org/2000/svg"><path d="m366.5 347c-31.707031 0-57.5-25.792969-57.5-57.5v-67c0-31.707031 25.792969-57.5 57.5-57.5s57.5 25.792969 57.5 57.5v67c0 31.707031-25.792969 57.5-57.5 57.5zm0-142c-9.648438 0-17.5 7.851562-17.5 17.5v67c0 9.648438 7.851562 17.5 17.5 17.5s17.5-7.851562 17.5-17.5v-67c0-9.648438-7.851562-17.5-17.5-17.5zm-98.472656 125.539062c10.945312-10.742187 16.972656-25.140624 16.972656-40.539062h-40c0 9.53125-7.6875 17-17.5 17-9.648438 0-17.5-7.851562-17.5-17.5v-67c0-9.648438 7.851562-17.5 17.5-17.5 9.8125 0 17.5 7.46875 17.5 17h40c0-15.398438-6.027344-29.796875-16.972656-40.539062-10.8125-10.613282-25.207032-16.460938-40.527344-16.460938-31.707031 0-57.5 25.792969-57.5 57.5v67c0 31.707031 25.792969 57.5 57.5 57.5 15.320312 0 29.714844-5.847656 40.527344-16.460938zm-123.027344-160.539062h-40v172h40zm111 342c-68.378906 0-132.667969-26.628906-181.019531-74.980469-48.351563-48.351562-74.980469-112.640625-74.980469-181.019531s26.628906-132.667969 74.980469-181.019531c48.351562-48.351563 112.640625-74.980469 181.019531-74.980469s132.667969 26.628906 181.019531 74.980469c48.351563 48.351562 74.980469 112.640625 74.980469 181.019531s-26.628906 132.667969-74.980469 181.019531c-48.351562 48.351563-112.640625 74.980469-181.019531 74.980469zm0-472c-119.101562 0-216 96.898438-216 216s96.898438 216 216 216 216-96.898438 216-216-96.898438-216-216-216zm0 0"/></svg>