<svg xmlns="http://www.w3.org/2000/svg" width="18.834" height="14.126" viewBox="0 0 18.834 14.126"><defs><style>.a{fill:#504741;}</style></defs><path class="a" d="M335.63,196.306h-15.7a1.574,1.574,0,0,0-1.569,1.57v10.986a1.574,1.574,0,0,0,1.569,1.57h15.7a1.568,1.568,0,0,0,1.562-1.57l.008-10.986A1.575,1.575,0,0,0,335.63,196.306Zm-10.986,2.354a2.354,2.354,0,1,1-2.355,2.355A2.352,2.352,0,0,1,324.644,198.66Zm4.708,9.417h-9.417v-.784c0-1.57,3.139-2.433,4.709-2.433s4.708.863,4.708,2.433Zm3.021-3.139h1.287l1.185,1.57-1.561,1.562a5.9,5.9,0,0,1-2.143-3.132,5.734,5.734,0,0,1,0-3.139,5.872,5.872,0,0,1,2.143-3.131l1.561,1.562L333.66,201.8h-1.287a4.632,4.632,0,0,0,0,3.139Z" transform="translate(-318.366 -196.306)"/></svg>